<svg xmlns="http://www.w3.org/2000/svg" width="93.511" height="35.5" viewBox="0 0 93.511 35.5"><g id="noun-timeline-2292422" transform="translate(-16.723)"><path id="Path_19001" data-name="Path 19001" d="M299.842,302.027l-7.468,7.468H268.239l7.468-7.468-7.468-7.468h24.135Z" transform="translate(-220.561 -273.996)" fill="#fff"/><path id="Path_19002" data-name="Path 19002" d="M139.681,302.028,132.1,309.5H108.077V294.56H132.1Z" transform="translate(-91.354 -273.996)" fill="#fff"/><path id="Path_19003" data-name="Path 19003" d="M460,302.027l-7.468,7.468H428.4l7.577-7.468-7.577-7.468h24.135Z" transform="translate(-349.768 -273.996)" fill="#fff"/><path id="Path_19004" data-name="Path 19004" d="M156.427,188.16a7.483,7.483,0,0,0-7.468,7.468,7.563,7.563,0,0,0,5.52,7.251l1.948,3.355,1.948-3.355a7.492,7.492,0,0,0-1.947-14.719Zm0,11.8a4.226,4.226,0,0,1-4.221-4.221,4.3,4.3,0,0,1,4.221-4.221,4.226,4.226,0,0,1,4.221,4.221A4.3,4.3,0,0,1,156.427,199.957Z" transform="translate(-124.334 -188.16)" fill="#fff"/><path id="Path_19005" data-name="Path 19005" d="M481.227,188.16a7.483,7.483,0,0,0-7.468,7.468,7.563,7.563,0,0,0,5.52,7.251l1.948,3.355,1.948-3.355a7.439,7.439,0,0,0,5.52-7.251A7.345,7.345,0,0,0,481.227,188.16Zm0,11.8a4.226,4.226,0,0,1-4.221-4.221,4.221,4.221,0,0,1,8.442,0A4.226,4.226,0,0,1,481.227,199.957Z" transform="translate(-386.361 -188.16)" fill="#fff"/></g></svg>