<svg xmlns="http://www.w3.org/2000/svg" width="104.707" height="104.707" viewBox="0 0 104.707 104.707"><g id="noun-feedback-1453124" transform="translate(0 0)"><path id="Path_19044" data-name="Path 19044" d="M314.653,18.367a1.184,1.184,0,0,1-.426.853c-1.108.938-2.217,1.876-3.411,2.814a.691.691,0,0,0-.256.853c.341,1.364.682,2.729,1.023,4.178a1.093,1.093,0,0,1-.426,1.279,1.3,1.3,0,0,1-1.364,0c-1.279-.767-2.473-1.535-3.752-2.387a.519.519,0,0,0-.682,0c-1.194.767-2.387,1.535-3.581,2.217a1.293,1.293,0,0,1-1.108.256,1.1,1.1,0,0,1-.767-1.364c.341-1.535.767-2.984,1.108-4.519.085-.256,0-.341-.171-.512-1.108-.853-2.132-1.791-3.155-2.729A1.332,1.332,0,0,1,297,18.026.985.985,0,0,1,298.026,17c1.535-.085,3.155-.171,4.69-.341.256,0,.341-.171.426-.341.512-1.279,1.023-2.558,1.62-3.922.085-.085.085-.256.171-.341a1.229,1.229,0,0,1,1.108-.682,1,1,0,0,1,1.023.767c.6,1.364,1.108,2.814,1.705,4.178-.171.341,0,.512.341.512l4.093.256a1.451,1.451,0,0,1,.6.085,1.282,1.282,0,0,1,.853,1.194Z" transform="translate(-254.968 -11.376)" fill="#fff"/><path id="Path_19045" data-name="Path 19045" d="M469.937,88.162a.962.962,0,0,1-.938.256c-1.449-.171-2.9-.256-4.348-.426-.426-.085-.6.085-.767.426-.682,1.194-1.45,2.473-2.217,3.666a1.145,1.145,0,0,1-1.194.6,1.1,1.1,0,0,1-.938-1.023c-.341-1.45-.682-2.9-.938-4.348-.085-.341-.17-.426-.512-.512-1.364-.341-2.729-.682-4.178-.938a1.23,1.23,0,0,1-.938-.6,1.068,1.068,0,0,1,.426-1.535c1.364-.767,2.643-1.62,4.007-2.387a.469.469,0,0,0,.256-.426c-.085-1.364-.256-2.814-.341-4.178a1.326,1.326,0,0,1,.341-1.364,1.056,1.056,0,0,1,1.449,0c1.194,1.023,2.388,2.046,3.5,3.07.171.171.341.085.512.085,1.279-.512,2.558-1.108,3.922-1.62.085-.085.256-.085.341-.171a1.221,1.221,0,0,1,1.279.256,1.159,1.159,0,0,1,.256,1.279c-.6,1.364-1.194,2.729-1.791,4.178a.668.668,0,0,0,.085.682c.938,1.023,1.791,2.046,2.729,3.155a1.784,1.784,0,0,1,.341.512,1.241,1.241,0,0,1-.341,1.364Z" transform="translate(-380.408 -62.667)" fill="#fff"/><path id="Path_19046" data-name="Path 19046" d="M540.745,244.653a1.184,1.184,0,0,1-.853-.426c-.938-1.108-1.876-2.217-2.814-3.411a.691.691,0,0,0-.853-.256c-1.364.341-2.729.682-4.178,1.023a1.093,1.093,0,0,1-1.279-.426,1.3,1.3,0,0,1,0-1.364c.767-1.279,1.535-2.473,2.388-3.752a.519.519,0,0,0,0-.682c-.767-1.194-1.535-2.387-2.217-3.581a1.293,1.293,0,0,1-.256-1.108,1.1,1.1,0,0,1,1.364-.767c1.535.341,2.984.767,4.519,1.108.256.085.341,0,.512-.171.853-1.108,1.791-2.132,2.729-3.155a1.332,1.332,0,0,1,1.279-.682.985.985,0,0,1,1.023,1.023c.085,1.535.171,3.155.341,4.69,0,.256.171.341.341.426,1.279.512,2.558,1.023,3.922,1.62.085.085.256.085.341.171a1.229,1.229,0,0,1,.682,1.108,1,1,0,0,1-.767,1.023c-1.364.6-2.814,1.108-4.178,1.705a.568.568,0,0,0-.426.6l-.256,4.093a1.451,1.451,0,0,1-.085.6,2.009,2.009,0,0,1-1.279.6Z" transform="translate(-443.03 -184.968)" fill="#fff"/><path id="Path_19047" data-name="Path 19047" d="M469.075,399.937a.962.962,0,0,1-.256-.938c.171-1.45.256-2.9.426-4.348.085-.426-.085-.6-.426-.767-1.194-.682-2.473-1.449-3.666-2.217a1.145,1.145,0,0,1-.6-1.194,1.1,1.1,0,0,1,1.023-.938c1.45-.341,2.9-.682,4.348-.938.341-.085.426-.171.512-.512.341-1.364.682-2.728.938-4.178a1.23,1.23,0,0,1,.6-.938,1.068,1.068,0,0,1,1.535.426c.767,1.364,1.62,2.643,2.387,4.007a.469.469,0,0,0,.426.256c1.364-.085,2.814-.256,4.178-.341a1.326,1.326,0,0,1,1.364.341,1.057,1.057,0,0,1,0,1.449c-1.023,1.194-2.046,2.387-3.07,3.5-.171.171-.085.341-.085.512.512,1.279,1.108,2.558,1.62,3.922.085.085.085.256.171.341a1.221,1.221,0,0,1-.256,1.279,1.159,1.159,0,0,1-1.279.256c-1.364-.6-2.728-1.194-4.178-1.791a.667.667,0,0,0-.682.085c-1.023.938-2.046,1.791-3.155,2.729a1.783,1.783,0,0,1-.512.341,1.241,1.241,0,0,1-1.364-.341Z" transform="translate(-389.863 -310.408)" fill="#fff"/><path id="Path_19048" data-name="Path 19048" d="M312.38,470.745a1.184,1.184,0,0,1,.426-.853c1.108-.938,2.217-1.876,3.411-2.814a.691.691,0,0,0,.256-.853c-.341-1.364-.682-2.728-1.023-4.178a1.093,1.093,0,0,1,.426-1.279,1.3,1.3,0,0,1,1.364,0c1.279.767,2.473,1.535,3.752,2.387a.519.519,0,0,0,.682,0c1.194-.767,2.387-1.535,3.581-2.217a1.293,1.293,0,0,1,1.108-.256,1.1,1.1,0,0,1,.767,1.364c-.341,1.535-.767,2.984-1.108,4.519-.085.256,0,.341.171.512,1.108.853,2.132,1.791,3.155,2.729a1.332,1.332,0,0,1,.682,1.279.985.985,0,0,1-1.023,1.023c-1.535.085-3.155.171-4.69.341-.256,0-.341.171-.426.341-.512,1.279-1.023,2.558-1.62,3.922-.085.085-.085.256-.171.341a1.229,1.229,0,0,1-1.108.682,1,1,0,0,1-1.023-.767c-.6-1.364-1.108-2.814-1.705-4.178a.568.568,0,0,0-.6-.426l-4.093-.256a1.451,1.451,0,0,1-.6-.085,2.009,2.009,0,0,1-.6-1.279Z" transform="translate(-267.358 -373.031)" fill="#fff"/><path id="Path_19049" data-name="Path 19049" d="M157.5,399.075a.962.962,0,0,1,.938-.256c1.45.171,2.9.256,4.348.426.426.085.6-.085.767-.426.682-1.194,1.45-2.473,2.217-3.666a1.145,1.145,0,0,1,1.194-.6,1.1,1.1,0,0,1,.938,1.023c.341,1.45.682,2.9.938,4.348.085.341.171.426.512.512,1.364.341,2.729.682,4.178.938a1.23,1.23,0,0,1,.938.6,1.068,1.068,0,0,1-.426,1.535c-1.364.767-2.643,1.62-4.007,2.387a.469.469,0,0,0-.256.426c.085,1.364.256,2.814.341,4.178a1.326,1.326,0,0,1-.341,1.364,1.057,1.057,0,0,1-1.45,0c-1.194-1.023-2.387-2.046-3.5-3.07-.171-.171-.341-.085-.512-.085-1.279.512-2.558,1.108-3.922,1.62-.085.085-.256.085-.341.171a1.221,1.221,0,0,1-1.279-.256,1.159,1.159,0,0,1-.256-1.279c.6-1.364,1.194-2.729,1.791-4.178a.667.667,0,0,0-.085-.682c-.938-1.023-1.791-2.046-2.729-3.155a1.784,1.784,0,0,1-.341-.512,1.241,1.241,0,0,1,.341-1.364Z" transform="translate(-142.324 -319.863)" fill="#fff"/><path id="Path_19050" data-name="Path 19050" d="M88.367,242.38a1.184,1.184,0,0,1,.853.426c.938,1.108,1.876,2.217,2.814,3.411a.691.691,0,0,0,.853.256c1.364-.341,2.729-.682,4.178-1.023a1.093,1.093,0,0,1,1.279.426,1.3,1.3,0,0,1,0,1.364c-.767,1.279-1.535,2.473-2.387,3.752a.519.519,0,0,0,0,.682c.767,1.194,1.535,2.387,2.217,3.581a1.293,1.293,0,0,1,.256,1.108,1.1,1.1,0,0,1-1.364.767c-1.535-.341-2.984-.767-4.519-1.108-.256-.085-.341,0-.512.171-.853,1.108-1.791,2.132-2.729,3.155a1.332,1.332,0,0,1-1.279.682A.985.985,0,0,1,87,259.007c-.085-1.535-.171-3.155-.341-4.69,0-.256-.171-.341-.341-.426-1.279-.512-2.558-1.023-3.922-1.62-.085-.085-.256-.085-.341-.171a1.229,1.229,0,0,1-.682-1.108,1,1,0,0,1,.767-1.023c1.364-.6,2.814-1.108,4.178-1.705.341.171.512,0,.512-.341l.256-4.093a1.451,1.451,0,0,1,.085-.6,1.282,1.282,0,0,1,1.194-.853Z" transform="translate(-81.376 -197.359)" fill="#fff"/><path id="Path_19051" data-name="Path 19051" d="M158.162,87.5a.962.962,0,0,1,.256.938c-.171,1.45-.256,2.9-.426,4.348-.085.426.085.6.426.767,1.194.682,2.473,1.45,3.666,2.217a1.145,1.145,0,0,1,.6,1.194,1.1,1.1,0,0,1-1.023.938c-1.45.341-2.9.682-4.348.938-.341.085-.426.171-.512.512-.341,1.364-.682,2.729-.938,4.178a1.23,1.23,0,0,1-.6.938,1.068,1.068,0,0,1-1.535-.426c-.767-1.364-1.62-2.643-2.387-4.007a.469.469,0,0,0-.426-.256c-1.364.085-2.814.256-4.178.341a1.326,1.326,0,0,1-1.364-.341,1.057,1.057,0,0,1,0-1.45c1.023-1.194,2.046-2.387,3.07-3.5.171-.171.085-.341.085-.512-.512-1.279-1.108-2.558-1.62-3.922-.085-.085-.085-.256-.171-.341a1.221,1.221,0,0,1,.256-1.279,1.159,1.159,0,0,1,1.279-.256c1.364.6,2.729,1.194,4.178,1.791a.668.668,0,0,0,.682-.085c1.023-.938,2.046-1.791,3.155-2.729a1.784,1.784,0,0,1,.512-.341,1.241,1.241,0,0,1,1.364.341Z" transform="translate(-132.667 -72.324)" fill="#fff"/><path id="Path_19052" data-name="Path 19052" d="M330.495,157.5l-.171-.171c-.085-.085-.085-.085-.171-.085l-.085-.085a.084.084,0,0,1-.085-.085l-.256-.085c-.085-.085-.256-.085-.341-.171-2.046-.682-4.263-.341-6.31-.171h-1.791a7.334,7.334,0,0,0-1.364.085h-.853c-.256,0-.512.085-.682.085h-.171a.084.084,0,0,1-.085-.085l.6-2.046c.341-1.279.767-2.558,1.108-3.837a10.593,10.593,0,0,0,.6-4.69,6.015,6.015,0,0,0-2.814-4.434,5.749,5.749,0,0,0-2.9-.853h-.256a1.547,1.547,0,0,0-1.62,1.535c-.085,1.194-.256,2.3-.426,3.411a12.159,12.159,0,0,1-1.535,4.69,9.178,9.178,0,0,1-1.535,2.046q-1.151,1.279-2.558,2.814l-2.132,2.387c-.512.6-1.023,1.108-1.535,1.62a1.86,1.86,0,0,1-.426.341,3.576,3.576,0,0,1-1.194.767,7.109,7.109,0,0,1-1.023.341c-1.791.512-2.814,1.023-2.9,2.046,0,.6-.085,1.108-.085,1.62v18.332h2.984c.938.171,1.961.341,3.24.512l.6.085c2.473.426,4.86.767,7.162,1.108,5.713.682,12.534,2.3,16.712-2.814,1.705-2.132,1.876-5.116,2.217-7.674.6-4.178,1.364-8.441,1.961-12.619a4.714,4.714,0,0,0-1.876-3.922Z" transform="translate(-255.376 -115.638)" fill="#fff"/><path id="Path_19053" data-name="Path 19053" d="M233.374,232.75h-7.589a1.748,1.748,0,0,0-1.791,1.791v22.425a1.748,1.748,0,0,0,1.791,1.791h7.589a1.748,1.748,0,0,0,1.791-1.791V234.541A1.748,1.748,0,0,0,233.374,232.75Z" transform="translate(-196.199 -189.606)" fill="#fff"/></g></svg>