<svg xmlns="http://www.w3.org/2000/svg" id="noun-overview-2496436" width="84.361" height="94.398" viewBox="0 0 84.361 94.398"><path id="Path_18960" data-name="Path 18960" d="M187.385,70.64a9.472,9.472,0,0,0-6.658,2.782L170.1,67.262a15.83,15.83,0,0,0,1.192-6.161A15.34,15.34,0,0,0,170.1,55.04l10.732-6.161a9.415,9.415,0,1,0-2.782-6.657,10.015,10.015,0,0,0,.4,2.484l-10.83,6.26A16.674,16.674,0,0,0,157.079,44.8V32.483a9.365,9.365,0,0,0,7.055-9.043,9.44,9.44,0,1,0-18.879,0,9.28,9.28,0,0,0,7.055,9.043V44.9a16.3,16.3,0,0,0-10.533,6.061L131.046,44.8a9.983,9.983,0,0,0,.4-2.484,9.5,9.5,0,1,0-2.784,6.657l10.732,6.161a16.257,16.257,0,0,0,0,12.222l-10.633,6.161a9.073,9.073,0,0,0-6.658-2.782,9.44,9.44,0,1,0,9.44,9.44,10.015,10.015,0,0,0-.4-2.484l10.633-6.26A16.132,16.132,0,0,0,152.309,77.5V89.917a9.365,9.365,0,0,0-7.055,9.043,9.44,9.44,0,0,0,18.879,0,9.28,9.28,0,0,0-7.055-9.043V77.5a16.547,16.547,0,0,0,10.533-6.061l10.732,6.26a9.984,9.984,0,0,0-.4,2.484,9.44,9.44,0,1,0,9.439-9.54Zm0-32.99a4.67,4.67,0,1,1-4.67,4.67A4.665,4.665,0,0,1,187.385,37.65ZM122,46.991a4.67,4.67,0,1,1,4.67-4.67A4.665,4.665,0,0,1,122,46.991Zm0,37.759a4.67,4.67,0,1,1,4.67-4.67A4.665,4.665,0,0,1,122,84.75Zm28.021-61.309a4.67,4.67,0,1,1,4.67,4.67A4.665,4.665,0,0,1,150.023,23.441Zm9.341,75.519a4.67,4.67,0,1,1-4.67-4.67A4.665,4.665,0,0,1,159.364,98.959Zm-4.67-25.935A11.825,11.825,0,1,1,166.519,61.2,11.853,11.853,0,0,1,154.694,73.025ZM187.385,84.75a4.67,4.67,0,1,1,4.67-4.67A4.665,4.665,0,0,1,187.385,84.75Z" transform="translate(-112.563 -14.001)" fill="#fff"/><path id="Path_18961" data-name="Path 18961" d="M313.712,235.2a8.48,8.48,0,0,0-2.285.4,3.542,3.542,0,0,1,.8,2.285,3.752,3.752,0,0,1-6.061,2.981,8.457,8.457,0,0,0-.4,2.285,7.95,7.95,0,1,0,7.949-7.949Z" transform="translate(-271.482 -195.95)" fill="#fff"/></svg>