<svg xmlns="http://www.w3.org/2000/svg" id="noun-csr-4326165" width="95.337" height="96.201" viewBox="0 0 95.337 96.201"><path id="Path_18812" data-name="Path 18812" d="M196.88,283.671V307.1a57.7,57.7,0,0,1,13.839-5.028V280.6Zm10.764,13.455h-7.689v-2.307h7.689Zm0-6.151h-7.689v-2.307h7.689Z" transform="translate(-176.12 -232.823)" fill="#fff"/><path id="Path_18813" data-name="Path 18813" d="M424.38,302.244a57.58,57.58,0,0,1,13.839,5.283V283.664l-13.839-3.075Zm3.075-13.582h7.689v2.307h-7.689Zm0,6.151h7.689v2.307h-7.689Z" transform="translate(-363.64 -232.817)" fill="#fff"/><path id="Path_18814" data-name="Path 18814" d="M310.278,214.7V182.786l-3.075-1.538-7.689-6.254-7.689,6.254-3.075,1.538v31.749a57.531,57.531,0,0,1,6.151-.771v-6.477h9.226v6.554h0a57.645,57.645,0,0,1,6.151.862Zm-16.915-26.918h12.3v2.307h-12.3Zm0,6.151h12.3v2.307h-12.3Zm0,8.457v-2.307h12.3v2.307Z" transform="translate(-251.845 -145.779)" fill="#fff"/><path id="Path_18815" data-name="Path 18815" d="M288.75,57.63c0,5.92,8.475,11.839,10.764,13.322,2.289-1.483,10.764-7.4,10.764-13.322,0-6.182-8.328-6.775-10.764-1.791C297.078,50.855,288.75,51.448,288.75,57.63Z" transform="translate(-251.845 -44.811)" fill="#fff"/><path id="Path_18816" data-name="Path 18816" d="M538.438,168.361c1.122-1.625,2.359-3.153,3.567-4.7l3.593-4.589-.019-.043s-9.185.909-12.667,6.43c-2.714,4.3-1.166,10.118-.35,12.483a85.191,85.191,0,0,1,5.876-9.578Z" transform="translate(-451.835 -132.618)" fill="#fff"/><path id="Path_18817" data-name="Path 18817" d="M554.774,169.212a83.694,83.694,0,0,0-4.758,9.77c2.815-.548,8.428-2.112,10.982-6.162,3.365-5.334.183-13-.036-13.511l-3.121,4.911C556.795,165.874,555.718,167.508,554.774,169.212Z" transform="translate(-467.197 -132.85)" fill="#fff"/><path id="Path_18818" data-name="Path 18818" d="M177.826,433.852l2.547-1.724h0a55.37,55.37,0,0,0-91.3-.63l2.523,1.76h0a52.367,52.367,0,0,1,4.672-5.746l6.535,3.329,7.522-5.539,3.075,4,4.613-3.075h5.73l-3.075-7.689,5.034-2.463c.384-1.321.8-2.885,1.2-4.645a51.235,51.235,0,0,1,21.067,1.2l-6.894,3.447L138,420.688l7.268,6.151,7.689-.612,6.151,4.613c2.881-1.046,7.3-2.594,12.755-4.277a52.546,52.546,0,0,1,5.963,7.29Z" transform="translate(-87.258 -337.651)" fill="#fff"/><path id="Path_18819" data-name="Path 18819" d="M91.052,164.6A12.316,12.316,0,1,0,82.357,161,12.3,12.3,0,0,0,91.052,164.6Zm0-21.528a9.218,9.218,0,0,1,7.6,14.452,4.614,4.614,0,0,0-4.52-3.688H87.976a4.614,4.614,0,0,0-4.52,3.688,9.217,9.217,0,0,1,7.6-14.452Z" transform="translate(-78.75 -116.934)" fill="#fff"/><path id="Path_18820" data-name="Path 18820" d="M131.726,170.863a4.613,4.613,0,1,1-4.613-4.613,4.613,4.613,0,0,1,4.613,4.613" transform="translate(-114.811 -138.571)" fill="#fff"/><path id="Path_18821" data-name="Path 18821" d="M420,89.688h4.613v2.307H420Z" transform="translate(-360.029 -75.464)" fill="#fff"/><path id="Path_18822" data-name="Path 18822" d="M253.75,89.688h4.613v2.307H253.75Z" transform="translate(-222.996 -75.464)" fill="#fff"/><path id="Path_18823" data-name="Path 18823" d="M271.11,27.744l1.631-1.63L276,29.376l-1.631,1.63Z" transform="translate(-237.305 -23.062)" fill="#fff"/><path id="Path_18824" data-name="Path 18824" d="M401.05,29.376l3.262-3.262,1.631,1.631-3.262,3.262Z" transform="translate(-344.41 -23.063)" fill="#fff"/><path id="Path_18825" data-name="Path 18825" d="M343.44,8.75h2.307v4.613H343.44Z" transform="translate(-296.924 -8.75)" fill="#fff"/></svg>