<svg xmlns="http://www.w3.org/2000/svg" id="noun-product-1375592" width="92.03" height="88.579" viewBox="0 0 92.03 88.579"><path id="Path_19094" data-name="Path 19094" d="M218.11,74.252,173.246,61.6h-.461L127.922,74.252a1.144,1.144,0,0,0-.806,1.151v60.969a1.386,1.386,0,0,0,.806,1.151l44.864,12.654h.69l44.864-12.654a1.144,1.144,0,0,0,.806-1.151V75.4a2.518,2.518,0,0,0-1.036-1.151ZM154.5,89.207l-10.353,2.3V72.066L154.5,69.191Zm62.119,46.244-42.563,12.079V64.245l42.563,11.963Z" transform="translate(-127.116 -61.598)" fill="#fff"/><path id="Path_19095" data-name="Path 19095" d="M418.349,227.057h.23l16.1-3.451a1.12,1.12,0,0,0,.92-1.151V199.448a1.224,1.224,0,0,0-1.035-1.151l-16.1-2.3a1.239,1.239,0,0,0-.92.23,1.305,1.305,0,0,0-.346.92v28.759a1.047,1.047,0,0,0,.46.92,1.641,1.641,0,0,0,.691.229Zm1.15-28.529,13.8,1.956v21.052l-13.8,2.991Z" transform="translate(-357.609 -168.388)" fill="#fff"/></svg>