<svg xmlns="http://www.w3.org/2000/svg" width="117.099" height="86.876" viewBox="0 0 117.099 86.876"><g id="noun-industry-automation-3427837" transform="translate(0)"><path id="Path_18851" data-name="Path 18851" d="M410.3,192.929l-5.831-3.736a7.442,7.442,0,0,1-13.312,0l-5.831,3.736v9.817H410.3Z" transform="translate(-319.385 -164.741)" fill="#fff"/><path id="Path_18852" data-name="Path 18852" d="M187.088,78.062a5.753,5.753,0,0,0-11.112-2.148H148.413a1.929,1.929,0,0,0-1.921,1.936v10.5c0,.03.007.059.008.089a4.8,4.8,0,1,0,3.823,0c0-.03.008-.059.008-.089V79.786h25.487a5.812,5.812,0,0,0,3.56,3.738v64.96h-7.294a8.151,8.151,0,0,0-8-6.776H92.96a8.151,8.151,0,0,0-8,6.776H77.673V83.532a5.808,5.808,0,0,0,3.582-3.746h25.464v8.568c0,.03.007.059.008.089a4.8,4.8,0,1,0,3.824,0c0-.03.008-.059.008-.089l0-10.5a1.928,1.928,0,0,0-1.921-1.936H81.1a5.769,5.769,0,1,0-7.269,7.617v66.887a1.928,1.928,0,0,0,1.921,1.936h9.215a8.15,8.15,0,0,0,7.995,6.776H164.09a8.151,8.151,0,0,0,8-6.776H181.3a1.929,1.929,0,0,0,1.921-1.936l0-66.879a5.811,5.811,0,0,0,3.866-5.478ZM98.805,152.555H93.216a2.135,2.135,0,0,1,0-4.27h5.589a2.135,2.135,0,0,1,0,4.27Zm16.258,0h-5.589a2.135,2.135,0,0,1,0-4.27h5.589a2.135,2.135,0,0,1,0,4.27Zm16.258,0h-5.589a2.135,2.135,0,0,1,0-4.27h5.589a2.135,2.135,0,0,1,0,4.27Zm16.258,0h-5.589a2.135,2.135,0,0,1,0-4.27h5.589a2.135,2.135,0,0,1,0,4.27Zm16.258,0h-5.59a2.135,2.135,0,0,1,0-4.27h5.59a2.135,2.135,0,0,1,0,4.27Z" transform="translate(-69.989 -72.254)" fill="#fff"/><path id="Path_18853" data-name="Path 18853" d="M200.964,189.194l-5.831,3.736v9.816h24.975v-9.818l-5.832-3.736a7.443,7.443,0,0,1-13.312,0Z" transform="translate(-168.965 -164.74)" fill="#fff"/><path id="Path_18854" data-name="Path 18854" d="M398.73,268.59v19.361H418.1V268.59h-6.984v5.191h-5.4V268.59Z" transform="translate(-329.99 -227.536)" fill="#fff"/><path id="Path_18855" data-name="Path 18855" d="M205.81,291.74V311.1h19.367V291.74h-6.983v5.192h-5.4V291.74Z" transform="translate(-177.41 -245.845)" fill="#fff"/></g></svg>