<svg xmlns="http://www.w3.org/2000/svg" width="91.6" height="84.168" viewBox="0 0 91.6 84.168"><g id="noun-export-5359666" transform="translate(0 0)"><path id="Path_19042" data-name="Path 19042" d="M189.37,197.91A13.222,13.222,0,0,0,176.155,184.7H147.049v34.962a3.346,3.346,0,1,1-6.691,0V184.7H110.985A13.222,13.222,0,0,0,97.77,197.91v33.522a13.243,13.243,0,0,0,13.215,13.215h65.171a13.243,13.243,0,0,0,13.215-13.215Z" transform="translate(-97.77 -160.478)" fill="#fff"/><path id="Path_19043" data-name="Path 19043" d="M277.406,69.461l6.022,6.022a3.373,3.373,0,0,0,4.751,0,3.332,3.332,0,0,0,0-4.717L276.4,58.989a3.169,3.169,0,0,0-3.178-.836,1.094,1.094,0,0,0-.468.134,3.313,3.313,0,0,0-1.071.7L259.942,70.766a3.273,3.273,0,0,0,0,4.717,3.332,3.332,0,0,0,4.717,0l6.056-6.056V82.235h6.691Z" transform="translate(-228.127 -58.02)" fill="#fff"/></g></svg>