<svg xmlns="http://www.w3.org/2000/svg" width="103.897" height="103.114" viewBox="0 0 103.897 103.114"><g id="noun-career-progress-2159736" transform="translate(0 0)"><path id="Path_19006" data-name="Path 19006" d="M181.034,142.919c3.761,0,6.806-4.922,6.806-9.524s-3.048-7.144-6.806-7.144-6.808,2.542-6.808,7.144S177.276,142.919,181.034,142.919Z" transform="translate(-161.716 -109.189)" fill="#fff"></path><path id="Path_19007" data-name="Path 19007" d="M417.92,68.917c4.222,0,7.644-5.527,7.644-10.694S422.141,50.2,417.92,50.2s-7.642,2.852-7.642,8.019S413.7,68.917,417.92,68.917Z" transform="translate(-344.807 -50.204)" fill="#fff"></path><path id="Path_19008" data-name="Path 19008" d="M350.1,177.009a2.9,2.9,0,0,0,3.348-2.372l.005-.032s.089-.533.25-1.461.4-2.267.685-3.864.644-3.461,1.034-5.448c.2-.99.411-2.014.625-3.052.224-1.016.45-2.05.678-3.081.007-.032.016-.063.024-.1l2.324,36.091,7.948,10.123,1.483-25.436h1.748l1.382,23.679,7.9-6.111,2.47-38.346c.007.032.016.063.024.1.228,1.032.454,2.064.678,3.081.214,1.038.422,2.06.625,3.052.387,1.987.747,3.848,1.034,5.448s.521,2.932.685,3.864l.248,1.461.005.032a2.9,2.9,0,0,0,5.753-.729s-.046-.553-.125-1.517-.212-2.33-.361-3.974-.356-3.559-.576-5.616c-.12-1.031-.246-2.095-.373-3.175-.145-1.1-.294-2.216-.442-3.333s-.332-2.168-.492-3.24l-.174-.947a9.234,9.234,0,0,0-.293-1.1,11.491,11.491,0,0,0-.935-2.174,10.358,10.358,0,0,0-3.227-3.463c-1.253-.844-4.485-2.913-7.693-2.913h-2.982a3.2,3.2,0,0,1-2.43,2.357l2.845,16.854-4.421,3.755-4.421-3.755,2.843-16.854a3.2,3.2,0,0,1-2.43-2.357h-2.982c-3.21,0-6.44,2.069-7.693,2.913a10.3,10.3,0,0,0-3.227,3.463,11.41,11.41,0,0,0-.935,2.174,10.29,10.29,0,0,0-.293,1.1l-.174.947c-.161,1.072-.339,2.125-.492,3.24s-.3,2.233-.442,3.333c-.125,1.081-.252,2.143-.372,3.175-.223,2.057-.423,3.974-.576,5.616s-.274,3.014-.361,3.974-.125,1.517-.125,1.517a2.9,2.9,0,0,0,2.4,3.1Z" transform="translate(-296.263 -121.759)" fill="#fff"></path><path id="Path_19009" data-name="Path 19009" d="M123.6,237.107l.005-.031.221-1.3c.147-.831.358-2.019.612-3.444s.574-3.08.921-4.85l.558-2.719c.2-.906.4-1.826.6-2.744.005-.029.014-.055.02-.084l2.5,38.824,7.11-5.58.86-14.734h1.558l.728,12.518a6.283,6.283,0,0,1,7.486,1.872l.124.158,2.129-33.055c.005.029.012.055.02.084.2.921.406,1.838.6,2.744q.283,1.39.555,2.719c.346,1.769.666,3.427.923,4.85s.463,2.613.612,3.444.221,1.3.221,1.3l.005.031a2.584,2.584,0,0,0,5.123-.648s-.039-.49-.113-1.35-.188-2.074-.322-3.542-.315-3.17-.514-5c-.108-.918-.219-1.863-.332-2.827-.129-.978-.262-1.975-.4-2.967s-.294-1.932-.438-2.884l-.154-.846a8.811,8.811,0,0,0-.26-.98,10.247,10.247,0,0,0-.833-1.937,9.263,9.263,0,0,0-2.875-3.086c-1.117-.75-3.994-2.592-6.851-2.592h-2.656a2.846,2.846,0,0,1-2.165,2.1l2.535,15.01-3.938,3.342-3.938-3.342,2.535-15.01a2.85,2.85,0,0,1-2.165-2.1h-2.656c-2.857,0-5.734,1.841-6.851,2.592a9.211,9.211,0,0,0-2.875,3.086,10.222,10.222,0,0,0-.833,1.937,9.215,9.215,0,0,0-.26.98l-.154.846c-.145.953-.3,1.894-.44,2.884s-.262,1.989-.394,2.967c-.113.964-.224,1.91-.33,2.827-.2,1.833-.377,3.542-.514,5s-.242,2.685-.322,3.542-.113,1.35-.113,1.35a2.584,2.584,0,0,0,5.124.646Z" transform="translate(-118.468 -172.944)" fill="#fff"></path><path id="Path_19010" data-name="Path 19010" d="M216.75,346.148l2.7,3.441-22.562,17.452-11.365-14.474a2.317,2.317,0,0,0-3.256-.391l-24.352,19.115-6.8-8.653a2.315,2.315,0,0,0-3.254-.393l-19.772,15.522,2.863,3.645,17.949-14.09,6.8,8.653a2.317,2.317,0,0,0,3.256.391l24.352-19.117,11.355,14.462a2.319,2.319,0,0,0,3.242.4l24.411-18.882,2.593,3.3,4.92-12.259Z" transform="translate(-125.934 -278.297)" fill="#fff"></path></g></svg>